<svg width="80" height="80" viewBox="0 0 80 80" fill="none" xmlns="http://www.w3.org/2000/svg">
<path opacity="0.3" d="M80 40C80 62.0914 62.0914 80 40 80C17.9086 80 0 62.0914 0 40C0 17.9086 17.9086 0 40 0C62.0914 0 80 17.9086 80 40ZM10.9071 40C10.9071 56.0675 23.9325 69.0929 40 69.0929C56.0675 69.0929 69.0929 56.0675 69.0929 40C69.0929 23.9325 56.0675 10.9071 40 10.9071C23.9325 10.9071 10.9071 23.9325 10.9071 40Z" fill="white"/>
<circle cx="40" cy="40" r="29" fill="white"/>
<path d="M31.667 31.6667V28.3333C31.667 27.3681 31.9464 26.4236 32.4714 25.6136C32.9965 24.8037 33.7447 24.1631 34.6258 23.7691C35.5069 23.375 36.4832 23.2444 37.4369 23.3931C38.3906 23.5417 39.2809 23.9632 40.0003 24.6067C40.7197 23.9632 41.61 23.5417 42.5637 23.3931C43.5174 23.2444 44.4937 23.375 45.3749 23.7691C46.256 24.1631 47.0042 24.8037 47.5292 25.6136C48.0543 26.4236 48.3336 27.3681 48.3337 28.3333V31.6667H50.8337C51.4967 31.6667 52.1326 31.9301 52.6014 32.3989C53.0703 32.8677 53.3337 33.5036 53.3337 34.1667V50.8417C53.3337 52.3865 52.72 53.8682 51.6276 54.9606C50.5352 56.053 49.0535 56.6667 47.5087 56.6667H33.3337C31.5655 56.6667 29.8699 55.9643 28.6196 54.714C27.3694 53.4638 26.667 51.7681 26.667 50V34.1667C26.667 33.5036 26.9304 32.8677 27.3992 32.3989C27.8681 31.9301 28.504 31.6667 29.167 31.6667H31.667ZM42.7253 54.1667C42.0454 53.1913 41.6818 52.0306 41.6837 50.8417V34.1667H29.167V50C29.167 50.5472 29.2748 51.089 29.4842 51.5945C29.6936 52.1 30.0005 52.5594 30.3874 52.9463C30.7743 53.3332 31.2336 53.6401 31.7391 53.8495C32.2447 54.0589 32.7865 54.1667 33.3337 54.1667H42.7253ZM39.167 31.6667V28.3333C39.167 27.6703 38.9036 27.0344 38.4348 26.5656C37.9659 26.0967 37.33 25.8333 36.667 25.8333C36.004 25.8333 35.3681 26.0967 34.8992 26.5656C34.4304 27.0344 34.167 27.6703 34.167 28.3333V31.6667H39.167ZM41.667 31.6667H45.8337V28.3333C45.8337 27.8187 45.6749 27.3166 45.379 26.8956C45.0832 26.4746 44.6645 26.1551 44.1803 25.9808C43.6961 25.8065 43.1699 25.7859 42.6736 25.9218C42.1773 26.0577 41.7349 26.3434 41.407 26.74C41.5753 27.24 41.667 27.7767 41.667 28.3333V31.6667ZM44.1837 50.8417C44.1837 51.7235 44.534 52.5692 45.1575 53.1928C45.7811 53.8163 46.6268 54.1667 47.5087 54.1667C48.3905 54.1667 49.2362 53.8163 49.8598 53.1928C50.4833 52.5692 50.8337 51.7235 50.8337 50.8417V34.1667H44.1837V50.8417Z" fill="black"/>
</svg>
