<?xml version="1.0" encoding="utf-8"?><svg version="1.1" id="Layer_1" xmlns="http://www.w3.org/2000/svg" xmlns:xlink="http://www.w3.org/1999/xlink" x="0px" y="0px" viewBox="0 0 122.88 56.65" style="enable-background:new 0 0 122.88 56.65" xml:space="preserve"><style type="text/css">.st0{fill-rule:evenodd;clip-rule:evenodd;}</style><g><path class="st0" d="M33.59,11.18h15.39c0.91-5.47,3.97-8.76,7.69-10.25c1.82-0.73,3.79-1.02,5.73-0.9 c1.92,0.11,3.82,0.62,5.52,1.48c3.61,1.82,6.32,5.19,6.54,9.68h14.91c8.26,0,15.15,4.23,19.18,10.68H14.71 C18.74,15.42,25.33,11.18,33.59,11.18L33.59,11.18z M1.7,27.32c-1.11-0.18-1.86-1.22-1.68-2.33c0.18-1.11,1.22-1.86,2.33-1.68 c3.94,0.65,6.99,2.02,9.03,3.92c0.19,0.18,0.37,0.36,0.55,0.55c0.14-0.41,0.28-0.81,0.43-1.21h98.47c0.12,0.32,0.23,0.65,0.33,0.97 c0.1-0.1,0.21-0.21,0.32-0.31c2.05-1.91,5.1-3.27,9.03-3.92c1.11-0.18,2.15,0.57,2.33,1.68c0.18,1.11-0.57,2.15-1.68,2.33 c-3.12,0.52-5.45,1.52-6.92,2.89c-1.3,1.21-1.91,2.77-1.74,4.56c0.02,0.22,0.01,0.43-0.04,0.63c0.73,9.58,1.37,21.26-12.41,21.26 H24.79c-14.46,0-15.49-10.86-14.39-21.24c-0.05-0.21-0.06-0.42-0.04-0.64c0.17-1.79-0.43-3.35-1.74-4.56 C7.15,28.84,4.82,27.84,1.7,27.32L1.7,27.32z M53.11,11.18H70.4c-0.21-2.77-1.98-4.88-4.3-6.05c-1.21-0.61-2.56-0.97-3.93-1.05 C60.8,4,59.43,4.19,58.18,4.7C55.84,5.64,53.87,7.72,53.11,11.18L53.11,11.18z M60.62,36.53c0.44-6.59,7.64-4.79,4.88,1.27 c5.93-2.91,7.97,4.22,1.34,4.86c5.49,3.67,0.33,9.01-3.54,3.59c-0.44,6.59-7.64,4.79-4.88-1.27c-5.92,2.91-7.97-4.22-1.34-4.86 C51.59,36.45,56.75,31.11,60.62,36.53L60.62,36.53z"/></g></svg>