<svg width="80" height="80" viewBox="0 0 80 80" fill="none" xmlns="http://www.w3.org/2000/svg">
<path opacity="0.3" d="M80 40C80 62.0914 62.0914 80 40 80C17.9086 80 0 62.0914 0 40C0 17.9086 17.9086 0 40 0C62.0914 0 80 17.9086 80 40ZM10.9071 40C10.9071 56.0675 23.9325 69.0929 40 69.0929C56.0675 69.0929 69.0929 56.0675 69.0929 40C69.0929 23.9325 56.0675 10.9071 40 10.9071C23.9325 10.9071 10.9071 23.9325 10.9071 40Z" fill="#2F2E30"/>
<circle cx="40" cy="40" r="29" fill="black"/>
<path fill-rule="evenodd" clip-rule="evenodd" d="M44.8676 40.6805C44.5863 39.8849 44.0652 39.1961 43.3762 38.709C42.6872 38.2218 41.8641 37.9602 41.0202 37.9602V36.9402H38.9803V37.9602C37.8982 37.9602 36.8604 38.39 36.0953 39.1552C35.3302 39.9203 34.9003 40.9581 34.9003 42.0401C34.9003 43.1222 35.3302 44.1599 36.0953 44.9251C36.8604 45.6902 37.8982 46.1201 38.9803 46.1201V50.2C38.0929 50.2 37.3371 49.6339 37.0555 48.8404C37.0138 48.7106 36.9464 48.5904 36.8574 48.4871C36.7684 48.3838 36.6595 48.2993 36.5373 48.2388C36.4151 48.1782 36.282 48.1428 36.1459 48.1346C36.0098 48.1264 35.8734 48.1456 35.7448 48.191C35.6162 48.2365 35.498 48.3072 35.3972 48.3991C35.2965 48.491 35.2151 48.6022 35.1581 48.7261C35.101 48.85 35.0694 48.984 35.0651 49.1203C35.0607 49.2566 35.0838 49.3924 35.1329 49.5197C35.4142 50.3153 35.9353 51.004 36.6243 51.4912C37.3133 51.9784 38.1364 52.24 38.9803 52.24V53.26H41.0202V52.24C42.1023 52.24 43.14 51.8102 43.9052 51.045C44.6703 50.2799 45.1002 49.2421 45.1002 48.1601C45.1002 47.078 44.6703 46.0402 43.9052 45.2751C43.14 44.51 42.1023 44.0801 41.0202 44.0801V40.0001C41.4421 40 41.8536 40.1307 42.1982 40.3742C42.5427 40.6177 42.8032 40.9621 42.9439 41.3598C43.034 41.6149 43.2217 41.8238 43.4658 41.9404C43.5867 41.9982 43.7177 42.0316 43.8515 42.0388C43.9853 42.0459 44.1191 42.0266 44.2454 41.982C44.3717 41.9374 44.488 41.8683 44.5877 41.7788C44.6873 41.6892 44.7683 41.581 44.8261 41.4601C44.8839 41.3392 44.9173 41.2082 44.9244 41.0744C44.9315 40.9407 44.9122 40.8068 44.8676 40.6805ZM38.9803 40.0001C38.4392 40.0001 37.9203 40.2151 37.5378 40.5976C37.1552 40.9802 36.9403 41.4991 36.9403 42.0401C36.9403 42.5812 37.1552 43.1 37.5378 43.4826C37.9203 43.8652 38.4392 44.0801 38.9803 44.0801V40.0001ZM41.0202 50.2C41.5613 50.2 42.0801 49.9851 42.4627 49.6025C42.8453 49.22 43.0602 48.7011 43.0602 48.1601C43.0602 47.619 42.8453 47.1001 42.4627 46.7176C42.0801 46.335 41.5613 46.1201 41.0202 46.1201V50.2Z" fill="white"/>
<path fill-rule="evenodd" clip-rule="evenodd" d="M28.9364 24.3138C31.4395 23.0888 35.5459 21.6404 40.04 21.6404C44.4402 21.6404 48.4386 23.0286 50.9284 24.2373L51.0691 24.3056C51.8198 24.6769 52.4257 25.0278 52.8521 25.3123L49.0842 30.8203C57.7704 39.7003 64.4799 58.3569 40.04 58.3569C15.6001 58.3569 22.129 40.0389 30.8907 30.8203L27.1473 25.3123C27.436 25.1236 27.8022 24.9043 28.2387 24.6718C28.455 24.5555 28.6875 24.4362 28.9364 24.3148V24.3138ZM46.6628 30.7468L49.6789 26.3374C46.8739 26.5394 43.5365 27.1983 40.3235 28.1285C38.0286 28.7915 35.4786 28.6905 33.1173 28.255C32.5223 28.1447 31.9314 28.0134 31.3456 27.8613L33.304 30.7448C37.5012 32.2391 42.4645 32.2391 46.6628 30.7468ZM32.1259 32.4829C37.0371 34.38 42.9398 34.38 47.8511 32.4808C49.9011 34.6419 51.616 37.0977 52.9388 39.7666C54.3178 42.5797 55.0685 45.3918 54.9461 47.8153C54.8278 50.1541 53.9077 52.1523 51.8066 53.6374C49.6167 55.1847 45.9335 56.3169 40.039 56.3169C34.1383 56.3169 30.4378 55.2041 28.2275 53.6741C26.111 52.2074 25.1818 50.2368 25.0502 47.9296C24.9125 45.5326 25.6469 42.7348 27.0209 39.9022C28.3315 37.2013 30.1604 34.6014 32.1259 32.4829ZM30.9529 25.6347C31.7689 25.8774 32.6216 26.0885 33.4866 26.2487C35.6795 26.6526 37.8786 26.7118 39.7554 26.1681C41.9425 25.531 44.1669 25.0299 46.4159 24.6677C44.5392 24.1026 42.3441 23.6804 40.039 23.6804C36.5251 23.6804 33.2479 24.6606 30.9529 25.6347Z" fill="white"/>
</svg>
