<svg width="16" height="16" viewBox="0 0 16 16" fill="none" xmlns="http://www.w3.org/2000/svg">
<path d="M9 7.02344H13.375C13.4019 7.02344 13.4278 7.03414 13.4468 7.05318C13.4659 7.07223 13.4766 7.09806 13.4766 7.125V13C13.4766 13.5242 13.2683 14.027 12.8976 14.3976C12.527 14.7683 12.0242 14.9766 11.5 14.9766H4.5C3.97578 14.9766 3.47304 14.7683 3.10236 14.3976C2.73168 14.027 2.52344 13.5242 2.52344 13V3C2.52344 2.47578 2.73168 1.97304 3.10236 1.60236C3.47304 1.23168 3.97578 1.02344 4.5 1.02344H7.375C7.40194 1.02344 7.42777 1.03414 7.44682 1.05318C7.46586 1.07223 7.47656 1.09806 7.47656 1.125V5.5C7.47656 5.90404 7.63707 6.29153 7.92277 6.57723C8.20847 6.86293 8.59596 7.02344 9 7.02344ZM5.5 12.0234H10.5C10.6388 12.0234 10.772 11.9683 10.8701 11.8701C10.9683 11.772 11.0234 11.6388 11.0234 11.5C11.0234 11.3612 10.9683 11.228 10.8701 11.1299C10.772 11.0317 10.6388 10.9766 10.5 10.9766H5.5C5.36118 10.9766 5.22804 11.0317 5.12987 11.1299C5.03171 11.228 4.97656 11.3612 4.97656 11.5C4.97656 11.6388 5.03171 11.772 5.12987 11.8701C5.22804 11.9683 5.36118 12.0234 5.5 12.0234ZM5.5 9.52344H10.5C10.6388 9.52344 10.772 9.46829 10.8701 9.37013C10.9683 9.27196 11.0234 9.13882 11.0234 9C11.0234 8.86118 10.9683 8.72804 10.8701 8.62987C10.772 8.53171 10.6388 8.47656 10.5 8.47656H5.5C5.36118 8.47656 5.22804 8.53171 5.12987 8.62987C5.03171 8.72804 4.97656 8.86118 4.97656 9C4.97656 9.13882 5.03171 9.27196 5.12987 9.37013C5.22804 9.46829 5.36118 9.52344 5.5 9.52344Z" fill="#232321" stroke="#232321" stroke-width="0.046875"/>
<path d="M8.59002 1.41612C8.59003 1.41613 8.59003 1.41614 8.59004 1.41614L13.084 5.91011C13.0894 5.91557 13.0931 5.92252 13.0946 5.93007C13.0961 5.93763 13.0953 5.94546 13.0924 5.95257C13.0895 5.95969 13.0845 5.96578 13.0781 5.97008C13.0717 5.97437 13.0642 5.97668 13.0565 5.97671H9C8.87361 5.97671 8.75239 5.9265 8.66302 5.83713C8.57365 5.74776 8.52344 5.62654 8.52344 5.50015V1.44364C8.52348 1.43595 8.52579 1.42845 8.53007 1.42207C8.53437 1.41567 8.54046 1.41069 8.54757 1.40775C8.55469 1.40481 8.56252 1.40403 8.57008 1.40553C8.57762 1.40702 8.58456 1.41071 8.59002 1.41612Z" fill="#232321" stroke="#232321" stroke-width="0.046875"/>
</svg>