<svg xmlns="http://www.w3.org/2000/svg" width="24" height="24" viewBox="0 0 24 24" fill="white" stroke="black" stroke-width="2" stroke-linecap="round" stroke-linejoin="round">
  <path d="M23 3a10.9 10.9 0 0 1-3.14.86A4.48 4.48 0 0 0 22.4 1.64a9.1 9.1 0 0 1-2.86 1.1 4.48 4.48 0 0 0-7.86 3 4.56 4.56 0 0 0 .11 1A12.94 12.94 0 0 1 3 2.16a4.52 4.52 0 0 0 1.38 6 4.48 4.48 0 0 1-2-.55v.06a4.48 4.48 0 0 0 3.6 4.39 4.52 4.52 0 0 1-2 .08 4.48 4.48 0 0 0 4.19 3.11A9 9 0 0 1 2 18.57a12.94 12.94 0 0 0 7 2.05c8.38 0 12.94-6.94 12.94-12.94 0-.2 0-.42-.02-.63A9.18 9.18 0 0 0 23 3z"/>
</svg>
